Hostel 2005 720p BluRay DD5.1 x264-AleX

General
Format                           : Matroska
File size                        : 4.36 GiB
Duration                         : 1h 33mn
Overall bit rate                 : 6 666 Kbps
Movie name                       : Hostel (2005)
Encoded date                     : UTC 2010-01-28 18:08:27
Writing application              : mkvmerge v3.0.0 ('Hang up your Hang-Ups') built on Dec 12 2009 15:20:35
Writing library                  : libebml v0.7.9 + libmatroska v0.8.1

Video
ID                               : 1
Format                           : AVC
Format/Info                      : Advanced Video Codec
Format profile                   : High@L4.1
Format settings, CABAC           : Yes
Format settings, ReFrames        : 6 frames
Muxing mode                      : Container profile=Unknown@4.1
Codec ID                         : V_MPEG4/ISO/AVC
Duration                         : 1h 33mn
Bit rate                         : 5 637 Kbps
Nominal bit rate                 : 5 768 Kbps
Width                            : 1 280 pixels
Height                           : 544 pixels
Display aspect ratio             : 2.35:1
Frame rate                       : 23.976 fps
Resolution                       : 8 bits
Colorimetry                      : 4:2:0
Scan type                        : Progressive
Bits/(Pixel*Frame)               : 0.338
Stream size                      : 3.68 GiB (84%)
Title                            : Video 720p BluRay x264
Writing library                  : x264 core 84 r1400kGIT 20fa784

Encoding settings
cabac=1 / ref=6 / deblock=1:-3:-3 / analyse=0x3:0x113 / me=umh / 
subme=9 / psy=1 / psy_rd=1.0:0.0 / mixed_ref=1 / me_range=32 / 
chroma_me=1 / trellis=2 / 8x8dct=1 / cqm=0 / deadzone=21,11 / 
fast_pskip=0 / chroma_qp_offset=-2 / threads=6 / sliced_threads=0 / 
nr=0 / decimate=1 / mbaff=0 / constrained_intra=0 / bframes=5 / 
b_pyramid=2 / b_adapt=2 / b_bias=0 / direct=3 / wpredb=1 / wpredp=2 / 
keyint=250 / keyint_min=25 / scenecut=40 / intra_refresh=0 / 
rc_lookahead=60 / rc=2pass / mbtree=1 / bitrate=5768 / ratetol=1.0 / 
qcomp=0.60 / qpmin=10 / qpmax=51 / qpstep=4 / cplxblur=20.0 / qblur=0.5 / 
ip_ratio=1.40 / aq=1:0.80 / pulldown=0 / nal_hrd=0

Audio #1
ID                               : 2
Format                           : AC-3
Format/Info                      : Audio Coding 3
Codec ID                         : A_AC3
Duration                         : 1h 33mn
Bit rate mode                    : Constant
Bit rate                         : 448 Kbps
Channel(s)                       : 6 channels
Channel positions                : Front: L C R, Surround: L R, LFE
Sampling rate                    : 48.0 KHz
Stream size                      : 300 MiB (7%)
Title                            : Italian DD5.1 @ 448 Kbps
Language                         : Italian

Audio #2
ID                               : 3
Format                           : AC-3
Format/Info                      : Audio Coding 3
Codec ID                         : A_AC3
Duration                         : 1h 33mn
Bit rate mode                    : Constant
Bit rate                         : 448 Kbps
Channel(s)                       : 6 channels
Channel positions                : Front: L C R, Surround: L R, LFE
Sampling rate                    : 48.0 KHz
Stream size                      : 300 MiB (7%)
Title                            : English DD5.1 @ 448 Kbps
Language                         : English

Subs #1
ID                               : 4
Format                           : UTF-8
Codec ID                         : S_TEXT/UTF8
Codec ID/Info                    : UTF-8 Plain Text
Title                            : Italian Subs
Language                         : Italian

Subs #2
ID                               : 5
Format                           : UTF-8
Codec ID                         : S_TEXT/UTF8
Codec ID/Info                    : UTF-8 Plain Text
Title                            : English Subs
Language                         : English

Menu                             : Yes